<svg width="118" height="36" viewBox="0 0 118 36" fill="none" xmlns="http://www.w3.org/2000/svg">
<path d="M21.6562 31.3203V35H4.59375V31.3203H21.6562ZM5.48438 0.875V35H0.960938V0.875H5.48438ZM51.5625 16.8594V19.0156C51.5625 21.5781 51.2422 23.875 50.6016 25.9062C49.9609 27.9375 49.0391 29.6641 47.8359 31.0859C46.6328 32.5078 45.1875 33.5938 43.5 34.3438C41.8281 35.0938 39.9531 35.4688 37.875 35.4688C35.8594 35.4688 34.0078 35.0938 32.3203 34.3438C30.6484 33.5938 29.1953 32.5078 27.9609 31.0859C26.7422 29.6641 25.7969 27.9375 25.125 25.9062C24.4531 23.875 24.1172 21.5781 24.1172 19.0156V16.8594C24.1172 14.2969 24.4453 12.0078 25.1016 9.99219C25.7734 7.96094 26.7188 6.23438 27.9375 4.8125C29.1562 3.375 30.6016 2.28125 32.2734 1.53125C33.9609 0.78125 35.8125 0.40625 37.8281 0.40625C39.9062 0.40625 41.7812 0.78125 43.4531 1.53125C45.1406 2.28125 46.5859 3.375 47.7891 4.8125C49.0078 6.23438 49.9375 7.96094 50.5781 9.99219C51.2344 12.0078 51.5625 14.2969 51.5625 16.8594ZM47.0859 19.0156V16.8125C47.0859 14.7812 46.875 12.9844 46.4531 11.4219C46.0469 9.85938 45.4453 8.54688 44.6484 7.48438C43.8516 6.42188 42.875 5.61719 41.7188 5.07031C40.5781 4.52344 39.2812 4.25 37.8281 4.25C36.4219 4.25 35.1484 4.52344 34.0078 5.07031C32.8828 5.61719 31.9141 6.42188 31.1016 7.48438C30.3047 8.54688 29.6875 9.85938 29.25 11.4219C28.8125 12.9844 28.5938 14.7812 28.5938 16.8125V19.0156C28.5938 21.0625 28.8125 22.875 29.25 24.4531C29.6875 26.0156 30.3125 27.3359 31.125 28.4141C31.9531 29.4766 32.9297 30.2812 34.0547 30.8281C35.1953 31.375 36.4688 31.6484 37.875 31.6484C39.3438 31.6484 40.6484 31.375 41.7891 30.8281C42.9297 30.2812 43.8906 29.4766 44.6719 28.4141C45.4688 27.3359 46.0703 26.0156 46.4766 24.4531C46.8828 22.875 47.0859 21.0625 47.0859 19.0156ZM83.5547 18.0078V30.5C83.1328 31.125 82.4609 31.8281 81.5391 32.6094C80.6172 33.375 79.3438 34.0469 77.7188 34.625C76.1094 35.1875 74.0312 35.4688 71.4844 35.4688C69.4062 35.4688 67.4922 35.1094 65.7422 34.3906C64.0078 33.6562 62.5 32.5938 61.2188 31.2031C59.9531 29.7969 58.9688 28.0938 58.2656 26.0938C57.5781 24.0781 57.2344 21.7969 57.2344 19.25V16.6016C57.2344 14.0547 57.5312 11.7812 58.125 9.78125C58.7344 7.78125 59.625 6.08594 60.7969 4.69531C61.9688 3.28906 63.4062 2.22656 65.1094 1.50781C66.8125 0.773438 68.7656 0.40625 70.9688 0.40625C73.5781 0.40625 75.7578 0.859375 77.5078 1.76562C79.2734 2.65625 80.6484 3.89063 81.6328 5.46875C82.6328 7.04688 83.2734 8.84375 83.5547 10.8594H79.0312C78.8281 9.625 78.4219 8.5 77.8125 7.48438C77.2188 6.46875 76.3672 5.65625 75.2578 5.04688C74.1484 4.42187 72.7188 4.10938 70.9688 4.10938C69.3906 4.10938 68.0234 4.39844 66.8672 4.97656C65.7109 5.55469 64.7578 6.38281 64.0078 7.46094C63.2578 8.53906 62.6953 9.84375 62.3203 11.375C61.9609 12.9062 61.7812 14.6328 61.7812 16.5547V19.25C61.7812 21.2188 62.0078 22.9766 62.4609 24.5234C62.9297 26.0703 63.5938 27.3906 64.4531 28.4844C65.3125 29.5625 66.3359 30.3828 67.5234 30.9453C68.7266 31.5078 70.0547 31.7891 71.5078 31.7891C73.1172 31.7891 74.4219 31.6562 75.4219 31.3906C76.4219 31.1094 77.2031 30.7812 77.7656 30.4062C78.3281 30.0156 78.7578 29.6484 79.0547 29.3047V21.6641H71.1562V18.0078H83.5547ZM117.328 16.8594V19.0156C117.328 21.5781 117.008 23.875 116.367 25.9062C115.727 27.9375 114.805 29.6641 113.602 31.0859C112.398 32.5078 110.953 33.5938 109.266 34.3438C107.594 35.0938 105.719 35.4688 103.641 35.4688C101.625 35.4688 99.7734 35.0938 98.0859 34.3438C96.4141 33.5938 94.9609 32.5078 93.7266 31.0859C92.5078 29.6641 91.5625 27.9375 90.8906 25.9062C90.2188 23.875 89.8828 21.5781 89.8828 19.0156V16.8594C89.8828 14.2969 90.2109 12.0078 90.8672 9.99219C91.5391 7.96094 92.4844 6.23438 93.7031 4.8125C94.9219 3.375 96.3672 2.28125 98.0391 1.53125C99.7266 0.78125 101.578 0.40625 103.594 0.40625C105.672 0.40625 107.547 0.78125 109.219 1.53125C110.906 2.28125 112.352 3.375 113.555 4.8125C114.773 6.23438 115.703 7.96094 116.344 9.99219C117 12.0078 117.328 14.2969 117.328 16.8594ZM112.852 19.0156V16.8125C112.852 14.7812 112.641 12.9844 112.219 11.4219C111.812 9.85938 111.211 8.54688 110.414 7.48438C109.617 6.42188 108.641 5.61719 107.484 5.07031C106.344 4.52344 105.047 4.25 103.594 4.25C102.188 4.25 100.914 4.52344 99.7734 5.07031C98.6484 5.61719 97.6797 6.42188 96.8672 7.48438C96.0703 8.54688 95.4531 9.85938 95.0156 11.4219C94.5781 12.9844 94.3594 14.7812 94.3594 16.8125V19.0156C94.3594 21.0625 94.5781 22.875 95.0156 24.4531C95.4531 26.0156 96.0781 27.3359 96.8906 28.4141C97.7188 29.4766 98.6953 30.2812 99.8203 30.8281C100.961 31.375 102.234 31.6484 103.641 31.6484C105.109 31.6484 106.414 31.375 107.555 30.8281C108.695 30.2812 109.656 29.4766 110.438 28.4141C111.234 27.3359 111.836 26.0156 112.242 24.4531C112.648 22.875 112.852 21.0625 112.852 19.0156Z" fill="black"/>
</svg>
